{
  "accessors": [
    {
      "bufferView": 1,
      "componentType": 5126,
      "count": 65532,
      "max": [
        3.867373466491699,
        5.231413841247559,
        32.04800033569336
      ],
      "min": [
        -6.121548175811768,
        -6.213861465454102,
        -0.04503905773162842
      ],
      "type": "VEC3"
    },
    {
      "bufferView": 1,
      "byteOffset": 786384,
      "componentType": 5126,
      "count": 65532,
      "max": [
        0.9999946355819702,
        0.9999979734420776,
        0.9999929666519165
      ],
      "min": [
        -0.9999986290931702,
        -0.9999990463256836,
        -0.9999998807907104
      ],
      "type": "VEC3"
    },
    {
      "bufferView": 0,
      "componentType": 5125,
      "count": 350829,
      "type": "SCALAR"
    },
    {
      "bufferView": 1,
      "byteOffset": 1572768,
      "componentType": 5126,
      "count": 25855,
      "max": [
        3.8586769104003906,
        5.231413841247559,
        33.6403694152832
      ],
      "min": [
        -6.009260654449463,
        -6.213861465454102,
        -0.00010627148003550246
      ],
      "type": "VEC3"
    },
    {
      "bufferView": 1,
      "byteOffset": 1883028,
      "componentType": 5126,
      "count": 25855,
      "max": [
        0.9999659657478333,
        0.9999922513961792,
        0.9999814033508301
      ],
      "min": [
        -0.9999986290931702,
        -0.9999951124191284,
        -0.9999995827674866
      ],
      "type": "VEC3"
    },
    {
      "bufferView": 0,
      "byteOffset": 1403316,
      "componentType": 5125,
      "count": 104997,
      "type": "SCALAR"
    }
  ],
  "asset": {
    "extras": {
      "author": "CaptainMESH (https://sketchfab.com/captainmesh)",
      "license": "CC-BY-NC-SA-4.0 (http://creativecommons.org/licenses/by-nc-sa/4.0/)",
      "source": "https://sketchfab.com/3d-models/non-lethal-self-defence-weapon-ea3e8ea1014d4901925fcca92a6f8faf",
      "title": "Non-lethal Self Defence Weapon"
    },
    "generator": "Sketchfab-15.38.0",
    "version": "2.0"
  },
  "bufferViews": [
    {
      "buffer": 0,
      "byteLength": 1823304,
      "name": "floatBufferViews",
      "target": 34963
    },
    {
      "buffer": 0,
      "byteLength": 2193288,
      "byteOffset": 1823304,
      "byteStride": 12,
      "name": "floatBufferViews",
      "target": 34962
    }
  ],
  "buffers": [
    {
      "byteLength": 4016592,
      "uri": "scene.bin"
    }
  ],
  "materials": [
    {
      "doubleSided": true,
      "name": "Scene_-_Root",
      "pbrMetallicRoughness": {
        "metallicFactor": 0.0,
        "roughnessFactor": 0.6
      }
    }
  ],
  "meshes": [
    {
      "name": "Object_0",
      "primitives": [
        {
          "attributes": {
            "NORMAL": 1,
            "POSITION": 0
          },
          "indices": 2,
          "material": 0,
          "mode": 4
        }
      ]
    },
    {
      "name": "Object_1",
      "primitives": [
        {
          "attributes": {
            "NORMAL": 4,
            "POSITION": 3
          },
          "indices": 5,
          "material": 0,
          "mode": 4
        }
      ]
    }
  ],
  "nodes": [
    {
      "children": [
        1
      ],
      "matrix": [
        1.0,
        -6.123234262925834e-17,
        -2.220446049250313e-16,
        0.0,
        -6.123234262925839e-17,
        -1.0,
        -4.440892098500626e-16,
        0.0,
        -2.220446049250313e-16,
        4.440892098500626e-16,
        -1.0,
        0.0,
        0.0,
        0.0,
        0.0,
        1.0
      ],
      "name": "Sketchfab_model"
    },
    {
      "children": [
        2,
        3
      ],
      "name": "Non-lethal defence weapon.stl.cleaner.materialmerger.gles"
    },
    {
      "mesh": 0,
      "name": "Object_2"
    },
    {
      "mesh": 1,
      "name": "Object_3"
    }
  ],
  "scene": 0,
  "scenes": [
    {
      "name": "Sketchfab_Scene",
      "nodes": [
        0
      ]
    }
  ]
}
